<svg xmlns="http://www.w3.org/2000/svg" width="34" height="34" viewBox="0 0 34 34">
    <g fill="none" fill-rule="evenodd">
        <path fill="#1AA28B" d="M28.209 0H5.79C2.664 0 .116 2.479.004 5.579L0 5.79V28.21c0 3.127 2.479 5.675 5.579 5.787L5.79 34H28.21c3.127 0 5.675-2.479 5.787-5.579L34 28.21V5.79C34 2.664 31.521.116 28.421.004L28.21 0z"/>
        <path fill="#FFF" d="M0 27H34V29H0z" opacity=".5"/>
        <path fill="#FFF" fill-rule="nonzero" d="M25.907 4.497l.155.122 3.32 3.303c.332.33.333.87.002 1.202-.284.285-.72.327-1.048.124l-.154-.121-1.85-1.84.018 6.313c0 .47-.38.85-.85.85-.41 0-.753-.291-.833-.679l-.017-.171-.019-6.319-1.803 1.839c-.282.287-.717.332-1.047.131l-.155-.12c-.287-.282-.332-.718-.132-1.047l.12-.155 3.242-3.303c.283-.289.721-.332 1.051-.13z"/>
    </g>
</svg>
