<svg xmlns="http://www.w3.org/2000/svg" width="34" height="34" viewBox="0 0 34 34">
    <g fill="none" fill-rule="evenodd">
        <path fill="#D9DBE1" d="M28.209 0H5.79C2.664 0 .116 2.479.004 5.579L0 5.79V28.21c0 3.127 2.479 5.675 5.579 5.787L5.79 34H28.21c3.127 0 5.675-2.479 5.787-5.579L34 28.21V5.79C34 2.664 31.521.116 28.421.004L28.21 0z"/>
        <path fill="#555" fill-rule="nonzero" d="M29.143 6.229L27.771 4.857 16.997 15.626 6.229 4.857 4.857 6.229 15.626 16.997 4.857 27.771 6.229 29.143 16.997 18.371 27.771 29.143 29.143 27.771 18.371 16.997z"/>
    </g>
</svg>
