<svg xmlns="http://www.w3.org/2000/svg" width="20" height="20" viewBox="0 0 20 20">
    <g fill="none" fill-rule="evenodd">
        <path fill="#D9DBE1" d="M16.593 0H3.407C1.567 0 .068 1.458.002 3.282L0 3.407v13.186c0 1.84 1.458 3.339 3.282 3.405l.125.002h13.186c1.84 0 3.339-1.458 3.405-3.282l.002-.125V3.407c0-1.84-1.458-3.339-3.282-3.405L16.593 0z"/>
        <g>
            <path d="M0 0H14.118V14.118H0z" transform="translate(2.941 2.941)"/>
            <path fill="#555" fill-rule="nonzero" d="M11.765 2.941L11.765 4.118 9.928 4.118 9.929 6.518 7.647 6.518 7.647 8.918 5.222 8.918 5.223 11.176 2.353 11.176 2.353 10 4.046 10 4.046 7.741 6.471 7.741 6.471 5.341 8.752 5.341 8.752 2.941z" transform="translate(2.941 2.941)"/>
        </g>
    </g>
</svg>
