<svg xmlns="http://www.w3.org/2000/svg" width="20" height="20" viewBox="0 0 20 20">
    <g fill="none" fill-rule="evenodd">
        <path fill="#7862EE" d="M16.593 0H3.407C1.567 0 .068 1.458.002 3.282L0 3.407v13.186c0 1.84 1.458 3.339 3.282 3.405l.125.002h13.186c1.84 0 3.339-1.458 3.405-3.282l.002-.125V3.407c0-1.84-1.458-3.339-3.282-3.405L16.593 0z"/>
        <path fill="#FFF" d="M0 15.882H20V17.058H0z" opacity=".5"/>
        <path fill="#FFF" d="M15.294 6.404l-1.382.726c-.119.063-.266.017-.328-.102-.025-.047-.033-.101-.024-.154l.264-1.539-1.119-1.09c-.096-.094-.098-.247-.004-.343.037-.039.086-.063.139-.071l1.545-.225.691-1.4c.06-.12.205-.17.326-.11.047.023.086.062.11.11l.691 1.4 1.545.225c.133.02.225.142.206.275-.008.053-.033.102-.071.14l-1.118 1.09.264 1.538c.022.132-.066.258-.199.28-.052.01-.106.001-.154-.024l-1.382-.726z"/>
    </g>
</svg>
