<svg xmlns="http://www.w3.org/2000/svg" width="20" height="20" viewBox="0 0 20 20">
    <g fill="none" fill-rule="evenodd">
        <path d="M0 0L20 0 20 20 0 20z" transform="matrix(-1 0 0 1 20 0)"/>
        <g fill-rule="nonzero">
            <path fill="#2751BD" d="M15.182 4.545c1.657 0 3 1.344 3 3V17c0 1.657-1.343 3-3 3H4.818c-1.657 0-3-1.343-3-3V7.545c0-1.656 1.343-3 3-3h10.364z"/>
            <path fill="#5A83FA" d="M15.182 5.455H4.818c-1.106 0-2.012.86-2.086 1.947l-.005.143V17c0 1.107.86 2.013 1.948 2.086l.143.005h10.364c1.106 0 2.012-.86 2.086-1.948l.005-.143V7.545c0-1.106-.86-2.012-1.948-2.086l-.143-.004z"/>
            <path fill="#2751BD" d="M2.273 1.818c1.255 0 2.272 1.018 2.272 2.273v8.182c0 1.255-1.017 2.272-2.272 2.272S0 13.528 0 12.273V4.09c0-1.255 1.018-2.273 2.273-2.273z"/>
            <path fill="#5A83FA" d="M2.273 2.727c-.71 0-1.292.541-1.358 1.233l-.006.13v8.183c0 .753.61 1.363 1.364 1.363.709 0 1.291-.54 1.357-1.232l.006-.131V4.09c0-.753-.61-1.364-1.363-1.364z"/>
            <path fill="#2751BD" d="M17.727 1.818C18.982 1.818 20 2.836 20 4.091v8.182c0 1.255-1.018 2.272-2.273 2.272-1.255 0-2.272-1.017-2.272-2.272V4.09c0-1.255 1.017-2.273 2.272-2.273z"/>
            <path fill="#5A83FA" d="M17.727 2.727c-.709 0-1.291.541-1.357 1.233l-.006.13v8.183c0 .753.61 1.363 1.363 1.363.71 0 1.292-.54 1.358-1.232l.006-.131V4.09c0-.753-.61-1.364-1.364-1.364z"/>
            <path fill="#2751BD" d="M5.91 0C4.151 0 2.726 1.425 2.726 3.182S4.152 6.364 5.91 6.364h8.182c1.757 0 3.182-1.425 3.182-3.182S15.848 0 14.09 0H5.909z"/>
            <path fill="#5A83FA" d="M14.09.91H5.91c-1.256 0-2.274 1.017-2.274 2.272 0 1.205.938 2.19 2.124 2.268l.15.005h8.18c1.256 0 2.274-1.018 2.274-2.273 0-1.205-.938-2.191-2.124-2.268l-.15-.005z"/>
        </g>
    </g>
</svg>
