<svg xmlns="http://www.w3.org/2000/svg" width="20" height="20" viewBox="0 0 20 20">
    <g fill="none" fill-rule="evenodd">
        <path fill="#1AA28B" d="M16.593 0H3.407C1.567 0 .068 1.458.002 3.282L0 3.407v13.186c0 1.84 1.458 3.339 3.282 3.405l.125.002h13.186c1.84 0 3.339-1.458 3.405-3.282l.002-.125V3.407c0-1.84-1.458-3.339-3.282-3.405L16.593 0z"/>
        <path fill="#FFF" d="M0 15.882H20V17.058H0z" opacity=".5"/>
        <path fill="#FFF" fill-rule="nonzero" d="M14.878 1.937c.212-.212.546-.228.777-.049l.055.049 1.765 1.765c.23.23.23.602 0 .832-.212.212-.546.228-.777.049l-.055-.05-1.349-1.348-1.349 1.349c-.212.212-.545.228-.776.049l-.056-.05c-.212-.211-.228-.545-.048-.776l.048-.055 1.765-1.765z"/>
        <rect width="1.176" height="5.882" x="14.706" y="2.353" fill="#FFF" rx=".588"/>
    </g>
</svg>
