<svg xmlns="http://www.w3.org/2000/svg" width="20" height="20" viewBox="0 0 20 20">
    <g fill="none" fill-rule="evenodd">
        <path fill="#D9DBE1" d="M16.593 0H3.407C1.567 0 .068 1.458.002 3.282L0 3.407v13.186c0 1.84 1.458 3.339 3.282 3.405l.125.002h13.186c1.84 0 3.339-1.458 3.405-3.282l.002-.125V3.407c0-1.84-1.458-3.339-3.282-3.405L16.593 0z"/>
        <path d="M0 0H20V20H0z"/>
        <path fill="#555" fill-rule="nonzero" d="M16.779 9.317c.266-.266.697-.266.963 0s.266.697 0 .963l-1.485 1.485 1.485 1.484c.218.219.26.553.1.83l-.043.068-.057.065c-.237.237-.61.266-.898.057l-.065-.057-1.485-1.484-1.485 1.484c-.246.247-.636.265-.903.053l-.06-.053c-.265-.266-.265-.697 0-.963l1.485-1.484-1.485-1.485c-.218-.219-.26-.553-.1-.83l.044-.068.056-.065c.237-.237.61-.265.898-.057l.065.057 1.485 1.485z"/>
    </g>
</svg>
