<svg xmlns="http://www.w3.org/2000/svg" xmlns:xlink="http://www.w3.org/1999/xlink" width="20" height="20" viewBox="0 0 20 20">
    <defs>
        <path id="prefix__a" d="M0 0H14.118V14.118H0z"/>
    </defs>
    <g fill="none" fill-rule="evenodd">
        <path fill="#D9DBE1" d="M16.593 0H3.407C1.567 0 .068 1.458.002 3.282L0 3.407v13.186c0 1.84 1.458 3.339 3.282 3.405l.125.002h13.186c1.84 0 3.339-1.458 3.405-3.282l.002-.125V3.407c0-1.84-1.458-3.339-3.282-3.405L16.593 0z"/>
        <g transform="translate(2.941 2.941)">
            <g>
                <path d="M0 0H9.412V9.412H0z" transform="translate(2.353 2.353)"/>
                <path fill="#57585A" d="M4.412 5.882v3.53H1.588c-.552 0-1-.448-1-1v-2.53h3.824zm4.412 0v2.53c0 .552-.448 1-1 1H5v-3.53h3.824zm-4.412-2.94v2.352H.588V3.941c0-.552.448-1 1-1h2.824zm3.412 0c.552 0 1 .447 1 1v1.352H5V2.941h2.824zM6.176 0c.65 0 1.177.527 1.177 1.176 0 .65-.527 1.177-1.177 1.177H5V1.176C5 .526 5.527 0 6.176 0zm-2.94 0c.649 0 1.176.527 1.176 1.176v1.177H3.235c-.65 0-1.176-.527-1.176-1.177S2.586 0 3.235 0z" transform="translate(2.353 2.353)"/>
            </g>
        </g>
    </g>
</svg>
