<svg xmlns="http://www.w3.org/2000/svg" width="20" height="20" viewBox="0 0 20 20">
    <g fill="none" fill-rule="evenodd">
        <path fill="#D9DBE1" d="M16.593 0H3.407C1.567 0 .068 1.458.002 3.282L0 3.407v13.186c0 1.84 1.458 3.339 3.282 3.405l.125.002h13.186c1.84 0 3.339-1.458 3.405-3.282l.002-.125V3.407c0-1.84-1.458-3.339-3.282-3.405L16.593 0z"/>
        <g>
            <path d="M0 0H14.118V14.118H0z" transform="translate(2.941 2.941)"/>
            <path fill="#57585A" d="M9.197 4.664c-.024-.003-.043-.013-.067-.013H4.987c-.024 0-.043.01-.067.013l-.864-1.396h6.005l-.864 1.396zM7.059 2.353h-3.25c-.644 0-1.064.547-.775 1.013L4.92 6.11l1.389 1.785c.075.12.175.208.288.276v2.678H5.404c-.255 0-.462.205-.462.457 0 .253.207.458.462.458h3.309c.256 0 .462-.205.462-.458 0-.252-.206-.457-.462-.457H7.52V8.172c.113-.068.214-.156.289-.276.284-.323.747-.918 1.388-1.785.64-.867 1.27-1.782 1.887-2.745.288-.466-.13-1.013-.775-1.013h-3.25z" transform="translate(2.941 2.941)"/>
        </g>
    </g>
</svg>
