<svg xmlns="http://www.w3.org/2000/svg" width="20" height="20" viewBox="0 0 20 20">
    <g fill="none" fill-rule="evenodd">
        <path fill="#D9DBE1" d="M16.593 0H3.407C1.567 0 .068 1.458.002 3.282L0 3.407v13.186c0 1.84 1.458 3.339 3.282 3.405l.125.002h13.186c1.84 0 3.339-1.458 3.405-3.282l.002-.125V3.407c0-1.84-1.458-3.339-3.282-3.405L16.593 0z"/>
        <path fill="#555" fill-rule="nonzero" d="M17.143 3.664L16.336 2.857 9.999 9.192 3.664 2.857 2.857 3.664 9.192 9.998 2.857 16.336 3.664 17.143 9.999 10.806 16.336 17.143 17.143 16.336 10.807 9.998z"/>
    </g>
</svg>
