<svg xmlns="http://www.w3.org/2000/svg" width="24" height="24" viewBox="0 0 24 24">
    <g fill="none" fill-rule="evenodd">
        <path d="M0 0h24v24H0z"/>
        <g stroke="#979797" stroke-width="1.2" transform="translate(4 5)">
            <path d="M.402 6h4.194v1h1.806V6H16v4a4 4 0 0 1-4 4H4.206A4 4 0 0 1 .21 9.8L.4 6z"/>
            <path d="M6.4 1.5v5.9H4.6V1.5a.897.897 0 0 1 .9-.9.897.897 0 0 1 .9.9z"/>
            <circle cx="5.5" cy="9.5" r="1.9"/>
            <path d="M10 1h3a3 3 0 0 1 3 3v2H8l2-5z"/>
        </g>
    </g>
</svg>
