<svg xmlns="http://www.w3.org/2000/svg" width="34" height="34" viewBox="0 0 34 34">
    <g fill="none" fill-rule="evenodd">
        <rect width="34" height="34" fill="#D9DBE1" rx="6"/>
        <path fill="#555" fill-rule="nonzero" d="M28.524 15.839c.452-.452 1.185-.452 1.637 0 .452.452.452 1.185 0 1.637L27.637 20l2.524 2.524c.372.372.442.94.171 1.41l-.074.116-.097.111c-.403.403-1.036.451-1.526.097l-.111-.097L26 21.637l-2.524 2.524c-.42.42-1.082.45-1.536.09l-.101-.09c-.452-.452-.452-1.185 0-1.637L24.363 20l-2.524-2.524c-.372-.372-.442-.94-.171-1.41l.074-.116.097-.111c.403-.403 1.036-.451 1.526-.097l.111.097L26 18.363z"/>
        <path fill="#FFF" d="M0 27H34V29H0z" opacity=".5"/>
    </g>
</svg>
