<svg xmlns="http://www.w3.org/2000/svg" width="20" height="20" viewBox="0 0 20 20">
    <g fill="none" fill-rule="evenodd">
        <path d="M0 0H20V20H0z"/>
        <circle cx="10" cy="10" r="10" fill="#FFF"/>
        <path fill="#00256C" fill-rule="nonzero" d="M13.546 15v-1.736h-2.254c-.476 0-1.162.056-1.68.112 1.89-1.848 3.444-3.864 3.444-5.74 0-1.932-1.302-3.192-3.262-3.192-1.414 0-2.338.56-3.29 1.568l1.12 1.12c.518-.574 1.148-1.064 1.904-1.064.98 0 1.554.63 1.554 1.68 0 1.596-1.666 3.542-4.48 6.062V15h6.944z"/>
    </g>
</svg>
