<svg xmlns="http://www.w3.org/2000/svg" width="20" height="20" viewBox="0 0 20 20">
    <g fill="none" fill-rule="evenodd">
        <path d="M0 0H20V20H0z"/>
        <circle cx="10" cy="10" r="10" fill="#FFF"/>
        <path fill="#00256C" fill-rule="nonzero" d="M9.57 15.196c2.058 0 3.976-1.694 3.976-5.614 0-3.598-1.764-5.138-3.724-5.138-1.778 0-3.262 1.33-3.262 3.458 0 2.198 1.246 3.262 2.968 3.262.714 0 1.596-.434 2.128-1.134-.084 2.604-1.05 3.486-2.212 3.486-.616 0-1.26-.322-1.638-.728L6.728 14.02c.616.63 1.554 1.176 2.842 1.176zm.35-5.502c-.896 0-1.47-.574-1.47-1.792 0-1.274.63-1.904 1.4-1.904.882 0 1.596.7 1.778 2.59-.504.798-1.148 1.106-1.708 1.106z"/>
    </g>
</svg>
