<svg xmlns="http://www.w3.org/2000/svg" width="34" height="34" viewBox="0 0 34 34">
    <g fill="none" fill-rule="evenodd">
        <path fill="#7862EE" d="M28.209 0H5.79C2.664 0 .116 2.479.004 5.579L0 5.79V28.21c0 3.127 2.479 5.675 5.579 5.787L5.79 34H28.21c3.127 0 5.675-2.479 5.787-5.579L34 28.21V5.79C34 2.664 31.521.116 28.421.004L28.21 0z"/>
        <path fill="#FFF" d="M0 27H34V29H0z" opacity=".5"/>
        <path fill="#FFF" d="M25.889 11.213l-2.717 1.428c-.119.062-.265.017-.328-.102-.025-.047-.033-.101-.024-.154l.519-3.025-2.198-2.142c-.096-.093-.098-.247-.004-.343.037-.039.086-.063.139-.071l3.037-.441L25.67 3.61c.06-.12.205-.17.325-.11.048.023.087.062.11.11l1.359 2.752 3.037.44c.132.02.224.143.205.276-.008.053-.033.102-.07.14L28.438 9.36l.518 3.025c.023.132-.066.258-.198.28-.053.01-.107 0-.154-.024l-2.716-1.428z"/>
    </g>
</svg>
