<svg xmlns="http://www.w3.org/2000/svg" width="34" height="34" viewBox="0 0 34 34">
    <g fill="none" fill-rule="evenodd">
        <path fill="#00256C" d="M28.209 0H5.79C2.664 0 .116 2.479.004 5.579L0 5.79V28.21c0 3.127 2.479 5.675 5.579 5.787L5.79 34H28.21c3.127 0 5.675-2.479 5.787-5.579L34 28.21V5.79C34 2.664 31.521.116 28.421.004L28.21 0z"/>
        <path fill="#001846" fill-rule="nonzero" d="M28.209 0l.212.004c3.026.109 5.46 2.54 5.575 5.565L34 5.79V28.21l-.004.212c-.109 3.026-2.54 5.46-5.565 5.575L28.21 34H5.79l-.212-.004c-3.026-.109-5.46-2.54-5.575-5.565L0 28.21V5.79l.004-.212C.113 2.553 2.544.119 5.569.004L5.79 0H28.21zm.185 1.504l-.212-.004H5.792C3.55 1.5 1.7 3.222 1.515 5.4l-.012.206-.004.185V28.21c0 2.241 1.722 4.09 3.9 4.275l.206.012.185.004H28.21c2.241 0 4.09-1.722 4.275-3.9l.012-.206.004-.185V5.79c0-2.241-1.722-4.09-3.9-4.275l-.206-.012z"/>
    </g>
</svg>
