<svg xmlns="http://www.w3.org/2000/svg" width="20" height="20" viewBox="0 0 20 20">
    <g fill="none" fill-rule="evenodd">
        <path fill="#D9DBE1" d="M16.593 0H3.407C1.567 0 .068 1.458.002 3.282L0 3.407v13.186c0 1.84 1.458 3.339 3.282 3.405l.125.002h13.186c1.84 0 3.339-1.458 3.405-3.282l.002-.125V3.407c0-1.84-1.458-3.339-3.282-3.405L16.593 0z"/>
        <g>
            <path d="M0 0H14.118V14.118H0z" transform="translate(2.941 2.941)"/>
            <g fill="#555">
                <path fill-rule="nonzero" d="M2.367 0c.137 0 .252.1.276.23l.004.05v1.714c0 .553-.382 1.017-.896 1.143v1.04c.162.067.28.191.303.338l.005.056v4.016c0 .247-.264.448-.588.448-.3 0-.548-.171-.584-.392l-.005-.056V4.57c0-.17.125-.318.308-.394v-1.04c-.488-.12-.857-.543-.893-1.06l-.003-.083V.28C.294.125.42 0 .574 0 .712 0 .826.1.85.23l.004.05v1.714c0 .24.137.447.336.549V.28c0-.155.126-.28.28-.28.138 0 .252.1.276.23l.005.05v2.263c.18-.093.31-.271.332-.482l.004-.067V.28c0-.155.125-.28.28-.28zM10.272.046c.137 0 .252.1.275.23l.005.05V8.54c0 .154-.126.28-.28.28-.138 0-.252-.1-.276-.23l-.004-.05V.326c0-.154.125-.28.28-.28zm.022 4.123c.3 0 .547.17.584.392l.004.056v4.016c0 .247-.263.448-.588.448-.3 0-.547-.17-.584-.392l-.004-.056V4.617c0-.247.263-.448.588-.448zm0-4.169c.65 0 1.177.658 1.177 1.47 0 .813-.527 1.471-1.177 1.471s-1.176-.658-1.176-1.47C9.118.658 9.644 0 10.294 0z" transform="translate(2.941 2.941) translate(1.176 2.647)"/>
                <path d="M5.882 2.059c1.625 0 2.942 1.317 2.942 2.941 0 1.624-1.317 2.941-2.942 2.941-1.624 0-2.94-1.317-2.94-2.941 0-1.624 1.316-2.941 2.94-2.941zm0 1.117C4.875 3.176 4.06 3.993 4.06 5c0 1.007.816 1.824 1.823 1.824 1.007 0 1.824-.817 1.824-1.824 0-1.007-.817-1.824-1.824-1.824zm0 .295c.845 0 1.53.684 1.53 1.529 0 .845-.685 1.53-1.53 1.53-.844 0-1.53-.685-1.53-1.53s.686-1.53 1.53-1.53z" transform="translate(2.941 2.941) translate(1.176 2.647)"/>
            </g>
        </g>
    </g>
</svg>
