<svg xmlns="http://www.w3.org/2000/svg" width="20" height="20" viewBox="0 0 20 20">
    <g fill="none" fill-rule="evenodd">
        <path d="M0 0L20 0 20 20 0 20z" transform="matrix(-1 0 0 1 20 0)"/>
        <g fill-rule="nonzero">
            <path fill="#2751BD" d="M4.818 0c-1.657 0-3 1.343-3 3v9.455c0 1.656 1.343 3 3 3h10.364c1.657 0 3-1.344 3-3V3c0-1.657-1.343-3-3-3H4.818z"/>
            <path fill="#5A83FA" d="M15.182.91H4.818c-1.106 0-2.012.859-2.086 1.947L2.727 3v9.455c0 1.106.86 2.012 1.948 2.086l.143.004h10.364c1.106 0 2.012-.86 2.086-1.947l.005-.143V3c0-1.107-.86-2.013-1.948-2.086l-.143-.005z"/>
            <path fill="#2751BD" d="M2.273 5.455C1.018 5.455 0 6.472 0 7.727v8.182c0 1.255 1.018 2.273 2.273 2.273 1.255 0 2.272-1.018 2.272-2.273V7.727c0-1.255-1.017-2.272-2.272-2.272z"/>
            <path fill="#5A83FA" d="M2.273 6.364c-.71 0-1.292.54-1.358 1.232l-.006.131v8.182c0 .753.61 1.364 1.364 1.364.709 0 1.291-.541 1.357-1.233l.006-.13V7.726c0-.753-.61-1.363-1.363-1.363z"/>
            <path fill="#2751BD" d="M17.727 5.455c-1.255 0-2.272 1.017-2.272 2.272v8.182c0 1.255 1.017 2.273 2.272 2.273S20 17.164 20 15.909V7.727c0-1.255-1.018-2.272-2.273-2.272z"/>
            <path fill="#5A83FA" d="M17.727 6.364c-.709 0-1.291.54-1.357 1.232l-.006.131v8.182c0 .753.61 1.364 1.363 1.364.71 0 1.292-.541 1.358-1.233l.006-.13V7.726c0-.753-.61-1.363-1.364-1.363z"/>
            <path fill="#2751BD" d="M5.91 13.636c-1.758 0-3.183 1.425-3.183 3.182S4.152 20 5.91 20h8.182c1.757 0 3.182-1.425 3.182-3.182s-1.425-3.182-3.182-3.182H5.909z"/>
            <path fill="#5A83FA" d="M14.09 14.545H5.91c-1.256 0-2.274 1.018-2.274 2.273 0 1.205.938 2.191 2.124 2.268l.15.005h8.18c1.256 0 2.274-1.018 2.274-2.273 0-1.205-.938-2.19-2.124-2.268l-.15-.005z"/>
        </g>
    </g>
</svg>
