<svg xmlns="http://www.w3.org/2000/svg" xmlns:xlink="http://www.w3.org/1999/xlink" width="20" height="20" viewBox="0 0 20 20">
    <defs>
        <path id="prefix__a" d="M0 0H14.706V14.706H0z"/>
    </defs>
    <g fill="none" fill-rule="evenodd">
        <path fill="#D9DBE1" d="M16.593 0H3.407C1.567 0 .068 1.458.002 3.282L0 3.407v13.186c0 1.84 1.458 3.339 3.282 3.405l.125.002h13.186c1.84 0 3.339-1.458 3.405-3.282l.002-.125V3.407c0-1.84-1.458-3.339-3.282-3.405L16.593 0z"/>
        <g transform="translate(2.941 2.941)">
            <mask id="prefix__b" fill="#fff">
                <use xlink:href="#prefix__a"/>
            </mask>
            <g fill="#555" mask="url(#prefix__b)">
                <g>
                    <path d="M1.645 2.741c.908 0 1.644.737 1.644 1.645v2.193h-.822v2.193H.822V6.578H0V4.387c0-.908.736-1.645 1.645-1.645zm0-2.467c.605 0 1.096.491 1.096 1.097 0 .605-.49 1.096-1.096 1.096-.606 0-1.097-.49-1.097-1.096C.548.765 1.04.274 1.645.274zM8.224 2.741c.644 0 1.206.439 1.362 1.064l.83 3.322h-1.37v1.645H7.401V7.127H6.03l.83-3.322c.157-.625.718-1.064 1.363-1.064zm0-2.467c.605 0 1.096.491 1.096 1.097 0 .605-.49 1.096-1.096 1.096-.606 0-1.097-.49-1.097-1.096 0-.606.491-1.097 1.097-1.097zM4.66 0H5.66V8.772H4.66z" transform="translate(2.145 2.696)"/>
                </g>
            </g>
        </g>
    </g>
</svg>
