<svg xmlns="http://www.w3.org/2000/svg" width="34" height="34" viewBox="0 0 34 34">
    <g fill="none" fill-rule="evenodd">
        <path d="M0 0H34V34H0z"/>
        <path fill="#FFF" d="M17.926 14.93l3.317-4.447c.066-.088.191-.107.28-.04.05.037.08.097.08.16v1.46c.692-.027 1.19.127 1.491.462.453.5.604.634 1.05.705.447.071.763-.149.763.43 0 .58.024.532-.209 1.284-.146.473-.662.765-1.548.874l-1.547.123-1.789 3.242v3.145c.678.246.899.688.663 1.326-.07.187-.246.353-.53.497h-1.875l-.65-3.883-3.793-.454-.604 2.588c.467.302.7.65.7 1.043 0 .28-.16.514-.482.706h-1.748c-.197 0-.296-.165-.296-.497v-5.847c.046-.532-.06-.948-.318-1.247-.237-.273-.78-.888-1.631-1.844-.146-.163-.156-.406-.024-.58.125-.168.361-.205.532-.084l2.268 1.602 5.547-.524c.14-.013.269-.086.353-.2z"/>
    </g>
</svg>
