<svg xmlns="http://www.w3.org/2000/svg" width="34" height="34" viewBox="0 0 34 34">
    <g fill="none" fill-rule="evenodd">
        <path d="M0 0H34V34H0z"/>
        <g fill="#FFF">
            <path d="M4.536 2.976c.815-.146 1.357-.925 1.211-1.74C5.601.42 4.822-.123 4.007.023 3.19.17 2.648.949 2.794 1.764c.146.816.925 1.358 1.74 1.212" transform="translate(11 9)"/>
            <path stroke="#FFF" stroke-width=".4" d="M7.77 11.13h-.8c.19 1.7-1.037 3.234-2.738 3.423-1.702.189-3.235-1.037-3.424-2.738-.012-.114-.019-.229-.019-.343 0-.644.2-1.273.576-1.797-.14-.277-.24-.571-.301-.875-1.476 1.56-1.408 4.023.153 5.499s4.023 1.407 5.5-.154c.683-.722 1.063-1.679 1.063-2.673 0-.09.006-.127 0-.214l-.01-.129z" transform="translate(11 9)"/>
            <path d="M11.2 12.905L10.087 9.07c-.094-.322-.389-.544-.724-.544H6.947c-.003-.033-.008-.066-.013-.1l-.665-3.71c-.136-.739-.842-1.23-1.582-1.1-.598.18-1.167.443-1.692.782-.704.469-1.23 1.161-1.492 1.965-.269.95-.03 1.942.711 2.952.201.275.587.334.862.133.274-.201.334-.587.132-.861-.503-.687-.678-1.32-.52-1.884.175-.505.506-.941.946-1.245l.618 3.449c.126.689.752 1.171 1.45 1.117.04.006.08.01.12.01h2.975l.956 3.293c.115.4.532.63.933.515.4-.116.63-.533.515-.933v-.003" transform="translate(11 9)"/>
        </g>
    </g>
</svg>
