<svg xmlns="http://www.w3.org/2000/svg" width="20" height="20" viewBox="0 0 20 20">
    <g fill="none" fill-rule="evenodd">
        <path d="M0 0H20V20H0z"/>
        <circle cx="10" cy="10" r="10" fill="#FFF"/>
        <path fill="#00256C" fill-rule="nonzero" d="M9.836 15.196c1.974 0 3.64-1.106 3.64-3.01 0-1.358-.896-2.226-2.072-2.548v-.07c1.106-.434 1.736-1.246 1.736-2.366 0-1.778-1.358-2.758-3.36-2.758-1.218 0-2.212.49-3.108 1.274l1.05 1.26c.616-.56 1.218-.91 1.96-.924.882.014 1.386.49 1.386 1.302 0 .924-.616 1.582-2.52 1.582v1.484c2.254 0 2.856.63 2.856 1.652 0 .924-.714 1.442-1.764 1.442-.938 0-1.694-.462-2.31-1.064l-.966 1.302c.728.826 1.834 1.442 3.472 1.442z"/>
    </g>
</svg>
