<svg xmlns="http://www.w3.org/2000/svg" width="20" height="20" viewBox="0 0 20 20">
    <g fill="none" fill-rule="evenodd">
        <path d="M0 0H20V20H0z"/>
        <circle cx="10" cy="10" r="10" fill="#FFF"/>
        <path fill="#00256C" fill-rule="nonzero" d="M10.424 15.196c1.764 0 3.248-1.33 3.248-3.458 0-2.226-1.232-3.262-2.968-3.262-.672 0-1.568.42-2.128 1.106.084-2.59 1.064-3.486 2.254-3.486.602 0 1.232.336 1.596.756l1.092-1.232c-.63-.644-1.554-1.176-2.814-1.176C8.618 4.444 6.7 6.096 6.7 9.96c0 3.654 1.75 5.236 3.724 5.236zm-.042-1.554c-.868 0-1.568-.728-1.764-2.618.518-.798 1.134-1.092 1.694-1.092.896 0 1.47.574 1.47 1.806 0 1.26-.63 1.904-1.4 1.904z"/>
    </g>
</svg>
