<svg xmlns="http://www.w3.org/2000/svg" width="20" height="20" viewBox="0 0 20 20">
    <g fill="none" fill-rule="evenodd">
        <path d="M0 0H20V20H0z"/>
        <circle cx="10" cy="10" r="10" fill="#FFF"/>
        <path fill="#00256C" fill-rule="nonzero" d="M10.116 15.196c2.1 0 3.486-1.204 3.486-2.772 0-1.414-.784-2.254-1.736-2.772v-.07c.686-.49 1.33-1.344 1.33-2.366 0-1.652-1.176-2.758-3.01-2.758-1.806 0-3.122 1.064-3.122 2.73 0 1.106.574 1.89 1.372 2.464v.07c-.966.518-1.778 1.372-1.778 2.702 0 1.624 1.484 2.772 3.458 2.772zm.658-6.118c-1.092-.434-1.89-.91-1.89-1.89 0-.826.56-1.288 1.26-1.288.868 0 1.372.602 1.372 1.442 0 .616-.238 1.204-.742 1.736zm-.602 4.662c-.966 0-1.736-.602-1.736-1.54 0-.77.392-1.47.952-1.918 1.344.546 2.296.994 2.296 2.072 0 .896-.644 1.386-1.512 1.386z"/>
    </g>
</svg>
