<svg xmlns="http://www.w3.org/2000/svg" width="20" height="20" viewBox="0 0 20 20">
    <g fill="none" fill-rule="evenodd">
        <path d="M0 0H20V20H0z"/>
        <circle cx="10" cy="10" r="10" fill="#FFF"/>
        <path fill="#00256C" fill-rule="nonzero" d="M9.864 15.196c1.918 0 3.626-1.33 3.626-3.64 0-2.254-1.456-3.29-3.192-3.29-.476 0-.84.098-1.246.294l.196-2.198h3.766V4.64H7.47l-.28 5.026.938.616c.602-.392.938-.546 1.554-.546 1.05 0 1.75.672 1.75 1.876 0 1.218-.756 1.904-1.834 1.904-.966 0-1.694-.476-2.282-1.05l-.952 1.316c.77.77 1.862 1.414 3.5 1.414z"/>
    </g>
</svg>
